<?xml version="1.0" standalone="no"?>
<!DOCTYPE svg PUBLIC "-//W3C//DTD SVG 20010904//EN"
        "http://www.w3.org/TR/2001/REC-SVG-20010904/DTD/svg10.dtd">
<svg version="1.0" xmlns="http://www.w3.org/2000/svg"
     width="512.000000pt" height="512.000000pt" viewBox="0 0 512.000000 512.000000"
     preserveAspectRatio="xMidYMid meet">

    <g transform="translate(0.000000,512.000000) scale(0.100000,-0.100000)"
       fill="#000000" stroke="none">
        <path d="M2503 4714 c-25 -22 -25 -24 -3 -10 66 43 140 -11 125 -90 -7 -40
-43 -67 -86 -67 -21 0 -26 -3 -19 -13 6 -6 16 -50 22 -97 6 -47 15 -84 19 -82
4 3 10 37 14 76 7 66 10 73 51 113 36 36 44 50 44 80 0 44 -22 91 -49 106 -36
19 -88 12 -118 -16z"/>
        <path d="M2430 4293 c0 -48 -34 -118 -71 -144 -19 -13 -76 -30 -152 -45 -140
-28 -163 -38 -189 -79 -44 -73 -18 -130 250 -549 63 -98 115 -183 116 -190 1
-6 5 -16 8 -21 4 -6 -19 1 -50 17 -31 15 -75 30 -97 33 -22 3 -33 2 -25 -1 8
-4 31 -13 50 -21 25 -10 31 -16 22 -22 -10 -6 -3 -11 20 -16 32 -7 32 -7 8
-15 -24 -7 -23 -7 13 -15 20 -4 37 -11 37 -15 0 -15 -128 -43 -172 -37 -27 4
-37 2 -27 -4 7 -5 32 -9 54 -9 l40 -1 -40 -20 c-237 -122 -449 -273 -619 -443
-100 -100 -226 -244 -226 -259 0 -3 30 13 68 35 41 25 125 97 217 187 300 292
609 511 758 538 34 6 35 -3 2 -29 -24 -19 -112 -131 -151 -193 -10 -16 31 21
91 84 61 62 112 117 113 122 2 5 15 9 28 9 22 0 24 -3 18 -27 -4 -16 -11 -38
-15 -51 -5 -13 -12 -53 -15 -90 -5 -57 -4 -70 11 -82 15 -13 19 -12 36 9 11
13 19 31 18 40 0 9 -5 4 -11 -11 -5 -16 -16 -28 -24 -28 -9 0 -14 10 -14 28 1
28 35 201 41 206 2 2 61 6 132 10 l127 6 50 -77 c28 -43 72 -120 98 -170 26
-51 53 -93 60 -93 15 0 15 5 1 33 -8 16 -4 14 13 -7 14 -16 31 -27 41 -25 14
3 -2 29 -73 117 -113 142 -100 137 21 -9 76 -90 96 -109 113 -105 12 3 32 6
46 6 23 0 21 3 -25 52 l-50 52 61 -52 c58 -48 104 -66 118 -44 6 10 -176 146
-299 223 -55 34 -117 77 -138 96 -20 18 -42 33 -48 33 -5 0 -7 5 -4 10 3 6 44
10 90 10 67 0 86 -3 93 -16 6 -11 12 -13 16 -6 8 14 -44 42 -79 42 -34 0 -22
20 13 22 15 0 5 4 -23 7 l-50 6 90 32 c59 21 76 30 50 26 -60 -9 -166 -42
-204 -64 -18 -11 -36 -17 -39 -15 -3 3 24 54 60 113 36 60 112 185 168 278
132 218 153 263 144 310 -8 47 -46 91 -87 104 -18 5 -81 20 -141 32 -99 20
-113 26 -147 60 -28 28 -40 51 -49 93 l-11 56 -130 0 -129 0 0 -37z m191 7
c35 0 37 -2 42 -42 6 -44 47 -110 87 -140 14 -10 85 -33 159 -52 90 -22 139
-39 148 -52 32 -44 -3 -141 -64 -177 -51 -30 -213 -84 -304 -103 -99 -20 -321
-15 -409 10 -68 19 -78 13 -13 -8 204 -68 468 -58 647 23 38 17 70 30 72 28 2
-1 -26 -57 -62 -122 -36 -66 -96 -181 -134 -256 -52 -103 -74 -138 -92 -143
-13 -3 -70 -9 -128 -13 -100 -7 -103 -7 -60 -17 l45 -10 -45 -7 c-25 -3 -52
-3 -61 2 -9 4 -34 46 -57 93 -22 47 -106 198 -187 335 -176 302 -178 306 -160
348 17 40 45 54 175 87 131 33 174 60 206 129 13 29 24 63 24 76 0 23 1 24 68
18 37 -4 83 -7 103 -7z"/>
        <path d="M3180 3564 c-90 -48 -225 -136 -275 -179 -19 -16 -6 -11 39 16 133
79 316 163 316 145 0 -2 5 -27 10 -57 34 -180 31 -334 -10 -440 -17 -47 -17
-50 0 -59 15 -8 21 -2 38 38 11 26 26 67 32 92 15 56 15 239 0 305 -18 79 -51
185 -58 185 -4 0 -45 -21 -92 -46z"/>
        <path d="M1930 3486 c-35 -94 -44 -285 -18 -380 13 -48 14 -45 10 76 -5 134
16 274 42 284 20 8 194 -53 276 -96 84 -44 60 -18 -34 37 -69 40 -138 69 -211
89 -27 8 -51 14 -53 14 -1 0 -7 -11 -12 -24z"/>
        <path d="M2700 3084 c0 -41 4 -63 10 -59 6 3 10 33 10 66 0 33 -4 59 -10 59
-6 0 -10 -29 -10 -66z"/>
        <path d="M2273 3096 c-72 -49 -123 -91 -248 -205 -94 -86 -248 -252 -240 -259
14 -14 72 30 133 101 87 102 276 286 360 351 53 42 70 58 60 55 -2 0 -31 -19
-65 -43z"/>
        <path d="M2423 3087 c-31 -42 -111 -172 -172 -279 -22 -40 -28 -58 -19 -58 8
0 36 44 63 97 27 53 77 139 111 190 64 95 75 127 17 50z"/>
        <path d="M2822 3030 c0 -14 2 -19 5 -12 2 6 2 18 0 25 -3 6 -5 1 -5 -13z"/>
        <path d="M2837 2925 c5 -81 8 -93 19 -82 4 3 -1 41 -9 84 l-16 78 6 -80z"/>
        <path d="M3091 2760 c-993 -82 -1514 -244 -1857 -577 -149 -144 -161 -265 -32
-318 89 -37 361 -32 400 7 34 34 9 40 -93 23 -170 -27 -274 -16 -329 35 -58
55 -33 138 74 243 168 166 445 301 803 391 334 83 877 146 1279 146 128 0 159
9 152 46 -3 17 -13 19 -88 21 -47 0 -186 -7 -309 -17z"/>
        <path d="M3517 2629 c-16 -9 -8 -21 64 -97 45 -48 111 -122 147 -164 36 -43
67 -78 69 -78 8 0 -123 189 -178 255 -73 90 -80 96 -102 84z"/>
        <path d="M3220 2604 c0 -11 114 -204 118 -199 7 7 -93 200 -105 203 -7 2 -13
0 -13 -4z"/>
        <path d="M3303 2586 c150 -229 316 -571 393 -808 15 -48 30 -86 31 -84 6 6
-34 153 -70 261 -67 197 -153 383 -260 560 -45 75 -59 91 -82 93 -28 4 -28 4
-12 -22z"/>
        <path d="M3386 2598 c4 -7 24 -33 44 -58 130 -159 340 -482 443 -680 69 -132
65 -125 74 -117 10 10 -69 187 -146 328 -77 141 -192 323 -288 452 -60 80 -68
87 -100 87 -24 0 -32 -4 -27 -12z"/>
        <path d="M3141 2504 c35 -116 76 -312 88 -414 l8 -75 2 60 c2 108 -24 277 -69
444 -17 62 -26 81 -40 81 -16 0 -15 -9 11 -96z"/>
        <path d="M2854 2575 c-4 -9 -4 -60 0 -113 3 -53 6 -187 6 -296 0 -204 8 -237
30 -121 15 84 23 342 13 450 -7 74 -11 90 -26 93 -9 2 -20 -4 -23 -13z"/>
        <path d="M2074 2462 c-5 -4 -20 -69 -33 -145 -24 -153 -65 -320 -108 -442
l-28 -80 -190 -66 c-246 -85 -310 -112 -310 -130 0 -23 45 -14 100 19 53 32
372 149 381 140 13 -14 -159 -429 -295 -712 -44 -93 -81 -173 -81 -178 0 -4 9
-8 19 -8 24 0 39 21 129 177 97 171 160 318 287 675 l27 78 84 26 c47 14 135
36 196 49 104 22 132 36 125 60 -7 22 -48 14 -202 -39 -88 -30 -168 -57 -177
-61 -17 -7 -17 -4 -2 41 54 172 114 466 114 562 0 41 -11 52 -36 34z"/>
        <path d="M3062 1824 c-17 -20 -55 -85 -86 -144 -46 -89 -65 -114 -108 -148
-124 -95 -318 -192 -385 -192 l-36 0 5 50 c3 33 16 68 37 101 25 40 29 54 20
65 -19 23 -42 16 -72 -21 -58 -73 -310 -212 -403 -223 l-47 -5 5 52 c3 34 16
68 37 102 25 41 29 54 20 66 -22 26 -53 10 -81 -42 -55 -102 -45 -205 21 -205
62 0 229 76 361 165 29 20 55 34 57 32 2 -2 -1 -16 -7 -31 -26 -68 -1 -136 49
-136 74 0 275 99 438 216 21 15 20 12 -7 -58 -15 -40 -38 -107 -50 -149 l-22
-77 -79 -23 c-43 -13 -78 -28 -76 -32 1 -5 26 -17 55 -26 30 -10 58 -23 63
-28 5 -5 3 -39 -6 -87 -15 -79 -20 -146 -9 -146 35 0 104 97 104 148 0 19 -7
46 -16 61 -15 25 -15 32 -1 82 16 52 19 55 81 87 52 27 257 159 356 230 16 12
16 7 -6 -45 -38 -92 -30 -133 27 -133 28 0 78 48 138 132 30 43 37 46 46 19 3
-10 17 -31 32 -45 56 -56 185 -24 348 86 71 48 146 118 139 129 -3 5 -20 -6
-38 -25 -43 -42 -159 -119 -228 -151 -154 -70 -229 -38 -212 93 6 48 5 54 -14
59 -20 5 -20 6 4 27 23 19 24 23 10 41 -15 20 -15 20 -59 -3 -25 -13 -68 -48
-98 -79 -91 -94 -475 -351 -495 -330 -8 8 49 157 105 273 32 67 82 156 111
198 28 43 49 84 46 92 -10 25 -44 15 -74 -22z m393 -231 c-27 -42 -106 -143
-111 -143 -12 0 42 87 78 126 46 50 58 56 33 17z m-660 -406 c-6 -23 -9 -24
-36 -14 -37 15 -37 22 4 34 39 12 40 12 32 -20z m25 -158 c-11 -38 -26 -55
-17 -19 4 14 7 33 7 43 0 10 4 16 9 12 6 -3 6 -18 1 -36z"/>
        <path d="M2492 1698 c-7 -7 -12 -22 -12 -35 0 -17 6 -23 23 -23 42 0 66 50 31
64 -22 8 -28 8 -42 -6z"/>
        <path d="M2032 1668 c-7 -7 -12 -22 -12 -35 0 -17 6 -23 23 -23 42 0 66 50 31
64 -22 8 -28 8 -42 -6z"/>
        <path d="M1575 616 c-6 -13 -4 -21 3 -24 7 -2 12 -8 12 -14 0 -6 -7 -8 -15 -4
-8 3 -15 0 -15 -7 0 -7 9 -13 20 -13 21 0 23 13 10 56 -7 23 -8 24 -15 6z"/>
        <path d="M1671 588 c0 -24 3 -36 6 -28 4 8 13 20 21 26 18 13 9 44 -13 44 -11
0 -15 -11 -14 -42z m29 23 c0 -6 -4 -13 -10 -16 -5 -3 -10 1 -10 9 0 9 5 16
10 16 6 0 10 -4 10 -9z"/>
        <path d="M1780 589 c0 -33 3 -40 17 -37 19 3 31 38 14 38 -6 0 -8 -7 -5 -15 4
-8 1 -15 -5 -15 -6 0 -11 13 -11 30 0 23 3 28 17 23 11 -4 14 -3 9 5 -17 27
-36 12 -36 -29z"/>
        <path d="M1890 590 c0 -31 4 -40 18 -40 10 0 13 3 7 8 -15 10 -16 55 -2 64 8
5 6 8 -5 8 -14 0 -18 -9 -18 -40z"/>
        <path d="M1991 588 c0 -31 3 -37 8 -23 7 18 8 18 18 1 8 -15 10 -11 9 20 -1
28 -6 40 -18 42 -15 3 -18 -4 -17 -40z m29 17 c0 -8 -4 -15 -10 -15 -5 0 -10
7 -10 15 0 8 5 15 10 15 6 0 10 -7 10 -15z"/>
        <path d="M2100 590 c0 -34 3 -41 18 -38 12 2 17 13 17 38 0 25 -5 36 -17 38
-15 3 -18 -4 -18 -38z m27 0 c0 -16 -4 -30 -9 -30 -4 0 -8 14 -8 30 0 17 4 30
8 30 5 0 9 -13 9 -30z"/>
        <path d="M2210 611 c0 -11 5 -23 10 -26 6 -3 10 -11 10 -16 0 -6 -4 -7 -10 -4
-5 3 -10 1 -10 -4 0 -6 7 -11 15 -11 17 0 21 35 5 45 -5 3 -10 11 -10 16 0 6
5 7 10 4 6 -3 10 -1 10 4 0 6 -7 11 -15 11 -8 0 -15 -9 -15 -19z"/>
        <path d="M2394 590 c1 -25 6 -36 19 -38 14 -3 17 4 15 40 l-1 43 -4 -37 c-5
-47 -20 -50 -26 -5 l-4 32 1 -35z"/>
        <path d="M2501 588 c1 -37 2 -39 9 -18 l8 25 7 -22 c11 -36 25 -27 24 15 0 30
-2 33 -9 17 -9 -19 -9 -19 -16 3 -11 36 -24 25 -23 -20z"/>
        <path d="M2707 613 c-3 -10 -8 -27 -11 -38 -5 -16 -1 -20 18 -20 22 0 22 2 13
35 -11 43 -14 46 -20 23z m10 -35 c-3 -8 -6 -5 -6 6 -1 11 2 17 5 13 3 -3 4
-12 1 -19z"/>
        <path d="M2801 590 c0 -31 3 -39 8 -25 7 18 8 18 18 1 9 -16 10 -11 9 22 0 31
-3 37 -10 25 -8 -16 -10 -15 -17 2 -5 14 -8 6 -8 -25z"/>
        <path d="M2915 619 c-4 -5 0 -18 9 -28 20 -22 21 -35 1 -27 -8 3 -15 1 -15 -4
0 -13 27 -13 35 1 4 5 0 18 -9 28 -20 22 -21 35 0 27 8 -3 12 -2 9 4 -8 13
-22 13 -30 -1z"/>
        <path d="M3020 590 c0 -31 4 -40 18 -40 10 0 13 3 7 8 -15 10 -16 55 -2 64 8
5 6 8 -5 8 -14 0 -18 -9 -18 -40z"/>
        <path d="M3125 619 c-4 -5 0 -18 9 -28 21 -23 20 -35 -1 -26 -15 5 -16 4 -5
-6 9 -10 15 -10 24 -1 9 9 8 16 -5 30 -21 23 -22 36 -1 28 8 -3 12 -2 9 4 -8
13 -22 13 -30 -1z"/>
        <path d="M3232 592 c-2 -36 1 -43 16 -40 12 2 17 14 18 43 l1 40 -4 -37 c-2
-21 -8 -38 -13 -38 -5 0 -11 17 -13 38 l-4 37 -1 -43z"/>
        <path d="M3343 594 c-9 -37 -8 -39 13 -39 20 0 22 4 17 25 -12 50 -20 53 -30
14z m14 -16 c-3 -8 -6 -5 -6 6 -1 11 2 17 5 13 3 -3 4 -12 1 -19z"/>
        <path d="M3451 588 c0 -33 2 -38 9 -23 l9 20 1 -20 c2 -14 5 -11 9 10 9 36 4
55 -15 55 -10 0 -14 -13 -13 -42z m24 23 c3 -5 1 -12 -5 -16 -5 -3 -10 1 -10
9 0 18 6 21 15 7z"/>
        <path d="M3553 590 c0 -25 2 -35 4 -22 2 12 2 32 0 45 -2 12 -4 2 -4 -23z"/>
    </g>
</svg>
